<svg width="42" height="42" viewBox="0 0 42 42" fill="none" xmlns="http://www.w3.org/2000/svg">
<path d="M41 21C41 32.0457 32.0457 41 21 41C9.9543 41 1 32.0457 1 21C1 9.9543 9.9543 1 21 1C32.0457 1 41 9.9543 41 21Z" fill="white"/>
<path d="M23.9474 17.1528L21 13M21 13L18.0526 17.1528M21 13V23.4722M18.2 19.2222L14 19.1865V29H28V19.1865H23.9474M41 21C41 32.0457 32.0457 41 21 41C9.9543 41 1 32.0457 1 21C1 9.9543 9.9543 1 21 1C32.0457 1 41 9.9543 41 21Z" stroke="black" stroke-linecap="round" stroke-linejoin="round"/>
</svg>
